<?xml version="1.0" encoding="utf-8"?>
<svg width="256" height="256" viewBox="0 0 256 256" fill="none" xmlns="http://www.w3.org/2000/svg">
  <g>
    <g>
      <path d="M0 128C0 57.3075 57.3075 0 128 0C198.692 0 256 57.3075 256 128C256 198.692 198.692 256 128 256C57.3075 256 0 198.692 0 128Z" fill="#E63D34" fill-rule="evenodd" />
      <path d="M192.33 116.167C188.906 114.749 185.225 114.054 181.519 114.125C181.519 114.125 150.164 114.125 150.164 114.125C149.169 114.125 148.362 113.318 148.362 112.323C148.362 111.328 149.169 110.521 150.164 110.521C150.164 110.521 181.519 110.521 181.519 110.521C193.841 110.693 204.721 102.508 207.97 90.6204C211.219 78.7323 206.016 66.1516 195.318 60.0321C184.621 53.9125 171.139 55.8039 162.538 64.6307C162.538 64.6307 140.313 86.855 140.313 86.855C139.596 87.3931 138.592 87.3217 137.958 86.6876C137.324 86.0535 137.253 85.0496 137.791 84.3322C137.791 84.3322 160.015 62.1079 160.015 62.1079C168.842 53.5072 170.733 40.0248 164.614 29.3274C158.494 18.6299 145.913 13.4264 134.025 16.6757C122.137 19.9249 113.952 30.8043 114.125 43.1272C114.125 43.1272 114.125 74.4815 114.125 74.4815C114.125 75.4767 113.318 76.2834 112.323 76.2834C111.328 76.2834 110.521 75.4767 110.521 74.4815C110.521 74.4815 110.521 43.1272 110.521 43.1272C110.693 30.8042 102.508 19.9249 90.6203 16.6756C78.7323 13.4264 66.1515 18.63 60.032 29.3274C53.9125 40.0249 55.8039 53.5073 64.6307 62.108C64.6307 62.108 86.855 84.3323 86.855 84.3323C87.3931 85.0497 87.3218 86.0536 86.6876 86.6877C86.0536 87.3218 85.0497 87.3931 84.3323 86.855C84.3323 86.855 62.108 64.6307 62.108 64.6307C53.5073 55.804 40.0249 53.9126 29.3274 60.0321C18.63 66.1516 13.4264 78.7324 16.6757 90.6204C19.925 102.509 30.8043 110.693 43.1272 110.521C43.1272 110.521 74.4815 110.521 74.4815 110.521C75.4767 110.521 76.2835 111.328 76.2835 112.323C76.2835 113.318 75.4767 114.125 74.4815 114.125C74.4815 114.125 43.1272 114.125 43.1272 114.125C30.7705 113.9 19.8347 122.084 16.5668 134.003C13.2989 145.922 18.5313 158.539 29.2751 164.647C40.0188 170.756 53.5372 168.799 62.108 159.895C62.108 159.895 84.3323 137.791 84.3323 137.791C85.0497 137.253 86.0536 137.324 86.6877 137.958C87.3218 138.592 87.3931 139.596 86.8551 140.314C86.8551 140.314 64.7509 162.538 64.7509 162.538C55.8469 171.109 53.8902 184.627 59.9985 195.371C66.1068 206.115 78.7241 211.347 90.643 208.079C102.562 204.811 110.746 193.875 110.521 181.519C110.521 181.519 110.521 150.164 110.521 150.164C110.521 149.169 111.328 148.362 112.323 148.362C113.318 148.362 114.125 149.169 114.125 150.164C114.125 150.164 114.125 181.519 114.125 181.519C113.952 193.842 122.137 204.721 134.025 207.97C145.913 211.219 158.494 206.016 164.614 195.318C170.733 184.621 168.842 171.138 160.015 162.538C160.015 162.538 137.791 140.313 137.791 140.313C137.253 139.596 137.324 138.592 137.958 137.958C138.592 137.324 139.596 137.253 140.313 137.791C140.313 137.791 162.538 159.895 162.538 159.895C170.165 167.818 181.833 170.33 192.045 166.247C202.257 162.164 208.977 152.301 209.04 141.303C209.102 130.305 202.495 120.366 192.33 116.167C192.33 116.167 192.33 116.167 192.33 116.167ZM112.323 145.96C93.7458 145.96 78.6861 130.9 78.6861 112.323C78.6861 93.7458 93.7458 78.6861 112.323 78.6861C130.9 78.6861 145.96 93.7458 145.96 112.323C145.96 130.9 130.9 145.96 112.323 145.96C112.323 145.96 112.323 145.96 112.323 145.96ZM143.557 112.323C143.557 129.573 129.573 143.557 112.323 143.557C95.0727 143.557 81.0887 129.573 81.0887 112.323C81.0887 95.0727 95.0727 81.0887 112.323 81.0887C129.573 81.0887 143.557 95.0727 143.557 112.323C143.557 112.323 143.557 112.323 143.557 112.323ZM120.131 21.6236L114.125 27.6302L112.323 18.0197L110.521 27.6302L104.514 21.6236L112.323 0L120.131 21.6236ZM53.6987 42.6466L53.6987 51.176L45.6499 45.6499L51.176 53.6987L42.6466 53.6987L32.916 32.916L53.6987 42.6466ZM21.6236 104.514L27.6302 110.521L18.0197 112.323L27.6302 114.125L21.6236 120.131L0 112.323L21.6236 104.514ZM42.6466 170.947L51.176 170.947L45.6499 178.996L53.6987 173.47L53.6987 181.999L32.916 191.73L42.6466 170.947ZM104.514 203.022L110.521 197.015L112.323 206.626L114.125 197.015L120.131 203.022L112.323 224.646L104.514 203.022ZM170.947 181.999L170.947 173.47L178.996 178.996L173.47 170.947L181.999 170.947L191.73 191.73L170.947 181.999ZM203.022 120.131L197.015 114.125L206.626 112.323L197.015 110.521L203.022 104.514L224.646 112.323L203.022 120.131ZM181.999 53.6987L173.47 53.6987L178.996 45.6499L170.947 51.176L170.947 42.6466L191.73 32.916L181.999 53.6987Z" fill="#FFCC00" transform="translate(15.737 15.737)" />
    </g>
  </g>
</svg>